<svg width="833" height="917" viewBox="0 0 833 917" fill="none" xmlns="http://www.w3.org/2000/svg">
<path d="M287.816 355H283.856V308.8H287.816C293.294 308.8 298.376 311.11 298.376 315.4C298.376 319.228 294.218 321.472 290.192 321.934V322.066C295.538 322.528 305.636 325.762 305.636 338.5C305.636 352.558 293.294 355 287.816 355ZM287.816 309.46V321.406C292.304 321.406 294.416 319.558 294.416 315.4C294.416 311.242 292.304 309.46 287.816 309.46ZM287.816 322.528V354.34C292.304 354.34 301.016 352.162 301.016 338.5C301.016 324.838 292.304 322.528 287.816 322.528ZM313.533 355H309.573V308.8H313.533V322C319.011 322 331.353 324.442 331.353 338.5C331.353 352.558 319.011 355 313.533 355ZM337.293 355H333.333V308.8H337.293V355ZM313.533 322.66V354.34C318.021 354.34 326.733 352.162 326.733 338.5C326.733 324.838 318.021 322.66 313.533 322.66ZM373.575 308.8H388.095V355H384.135V309.46H377.535V355H373.575V308.8ZM398.611 308.8C404.089 308.8 416.431 311.242 416.431 325.3C416.431 339.358 404.089 341.8 398.611 341.8V355H394.651V308.8H398.611ZM398.611 341.14C403.099 341.14 411.811 338.962 411.811 325.3C411.811 311.638 403.099 309.46 398.611 309.46V341.14ZM424.328 308.8V340.018H424.46L434.756 308.8V355H430.796V324.046H430.664L420.368 355V308.8H424.328ZM458.636 355H438.704L441.344 363.58H437.384V354.34H438.572C447.152 354.34 447.152 341.404 447.152 309.46H444.776V308.8H456.656V354.34H459.956V363.58H455.996L458.636 355ZM452.696 309.46H447.812C447.812 338.17 447.548 351.106 441.806 354.208V354.34H452.696V309.46ZM468.543 325.96V354.34H476.463V355H464.583V308.8H476.463V309.46H468.543V325.3H472.503V325.96H468.543ZM485.716 309.46H477.796V308.8H497.596V309.46H489.676V355H485.716V309.46ZM504.186 325.96V354.34H512.106V355H500.226V308.8H512.106V309.46H504.186V325.3H508.146V325.96H504.186ZM531.355 341.14H533.335C537.823 341.14 546.535 338.962 546.535 325.3C546.535 311.638 537.823 309.46 533.335 309.46C528.847 309.46 520.135 311.638 520.135 325.3H515.515C515.515 311.242 527.857 308.8 533.335 308.8C538.813 308.8 551.155 311.242 551.155 325.3C551.155 337.84 541.321 341.14 535.315 341.734V348.466H531.355V341.14ZM530.761 353.152C530.761 351.634 531.817 350.578 533.335 350.578C534.919 350.578 535.909 351.634 535.909 353.152C535.909 354.736 534.919 355.726 533.335 355.726C531.817 355.726 530.761 354.736 530.761 353.152Z" fill="#820201"/>
<path d="M213.066 419.982V442H211.907V422.484H211.846L203.362 441.954H202.202L193.718 422.484H193.657V442H192.497V419.982H193.84L202.736 440.428H202.828L211.693 419.982H213.066ZM231.102 442V425.566H232.277V442H231.102ZM222.511 432.616H218.315V440.962H222.511C223.864 440.962 224.948 440.586 225.762 439.833C226.575 439.07 226.982 438.053 226.982 436.781C226.982 435.52 226.575 434.513 225.762 433.76C224.948 432.997 223.864 432.616 222.511 432.616ZM217.14 442V425.566H218.315V431.594H222.511C224.22 431.594 225.589 432.061 226.616 432.997C227.644 433.933 228.157 435.195 228.157 436.781C228.157 438.368 227.644 439.635 226.616 440.581C225.589 441.527 224.22 442 222.511 442H217.14ZM249.123 442.305C246.773 442.305 244.962 441.491 243.691 439.864C242.429 438.236 241.799 435.912 241.799 432.891C241.799 430.866 241.89 429.122 242.073 427.657C242.267 426.182 242.562 424.905 242.958 423.827C243.355 422.748 243.884 421.884 244.545 421.233C245.217 420.582 246.015 420.104 246.941 419.798C247.866 419.483 248.965 419.315 250.237 419.295C251.132 419.295 251.946 419.259 252.678 419.188C253.848 419.086 254.748 418.898 255.379 418.624V419.661C254.85 419.956 253.98 420.155 252.77 420.256C251.997 420.348 251.157 420.394 250.252 420.394C248.98 420.404 247.912 420.577 247.048 420.912C246.193 421.238 245.476 421.782 244.896 422.545C244.316 423.308 243.869 424.269 243.553 425.429C243.248 426.589 243.019 428.059 242.867 429.839H242.928C243.436 428.506 244.24 427.474 245.339 426.741C246.437 425.999 247.734 425.627 249.23 425.627C251.427 425.627 253.182 426.38 254.494 427.886C255.806 429.381 256.462 431.375 256.462 433.867C256.462 436.431 255.796 438.48 254.463 440.016C253.131 441.542 251.351 442.305 249.123 442.305ZM249.123 441.222C250.995 441.222 252.485 440.561 253.594 439.238C254.702 437.906 255.257 436.115 255.257 433.867C255.257 431.68 254.702 429.94 253.594 428.649C252.495 427.357 251.005 426.711 249.123 426.711C247.241 426.711 245.746 427.357 244.637 428.649C243.538 429.94 242.989 431.68 242.989 433.867C242.989 436.115 243.538 437.906 244.637 439.238C245.746 440.561 247.241 441.222 249.123 441.222ZM260.719 447.402C260.475 447.402 260.201 447.356 259.896 447.264V446.211C260.14 446.293 260.424 446.333 260.75 446.333C261.482 446.333 262.078 446.105 262.535 445.647C262.993 445.189 263.436 444.406 263.863 443.297L264.275 442.229L257.988 425.566H259.255L264.885 440.84H264.916L270.546 425.566H271.797L265.434 442.519C264.692 444.482 264.01 445.784 263.39 446.425C262.769 447.076 261.879 447.402 260.719 447.402ZM285.637 440.962V426.604H277.306C277.062 430.561 276.853 433.404 276.68 435.134C276.548 436.537 276.36 437.722 276.116 438.689C275.871 439.645 275.51 440.388 275.032 440.917V440.962H285.637ZM273.369 446.349H272.24V440.962H273.537C274.605 440.26 275.281 438.292 275.566 435.057C275.861 431.772 276.085 428.608 276.238 425.566H286.812V440.962H289.528V446.349H288.399V442H273.369V446.349ZM298.332 426.421C296.623 426.421 295.225 427.021 294.136 428.221C293.048 429.422 292.458 431.003 292.366 432.967H304.161C304.151 431.024 303.607 429.447 302.529 428.237C301.46 427.026 300.062 426.421 298.332 426.421ZM303.963 437.407H305.168C304.894 438.821 304.151 439.976 302.941 440.871C301.74 441.766 300.25 442.214 298.47 442.214C296.222 442.214 294.436 441.471 293.114 439.986C291.802 438.49 291.146 436.431 291.146 433.806C291.146 431.263 291.802 429.218 293.114 427.672C294.436 426.126 296.181 425.353 298.348 425.353C300.464 425.353 302.162 426.08 303.444 427.535C304.726 428.979 305.367 430.897 305.367 433.287V433.974H292.351V434.035C292.351 436.253 292.905 437.992 294.014 439.253C295.123 440.515 296.613 441.146 298.485 441.146C299.95 441.146 301.165 440.8 302.132 440.108C303.108 439.416 303.719 438.516 303.963 437.407ZM309.654 442H308.479V425.566H309.853L317.055 440.459H317.116L324.288 425.566H325.615V442H324.44V427.825H324.364L317.528 441.878H316.582L309.731 427.825H309.654V442ZM347.557 439.925C346.214 441.451 344.444 442.214 342.247 442.214C340.05 442.214 338.28 441.451 336.937 439.925C335.605 438.399 334.938 436.354 334.938 433.791C334.938 431.217 335.605 429.167 336.937 427.641C338.28 426.116 340.05 425.353 342.247 425.353C344.455 425.353 346.225 426.116 347.557 427.641C348.9 429.167 349.571 431.217 349.571 433.791C349.571 436.354 348.9 438.399 347.557 439.925ZM337.792 439.162C338.911 440.484 340.396 441.146 342.247 441.146C344.099 441.146 345.579 440.484 346.688 439.162C347.806 437.829 348.366 436.039 348.366 433.791C348.366 431.532 347.812 429.742 346.703 428.42C345.594 427.097 344.109 426.436 342.247 426.436C340.386 426.436 338.9 427.097 337.792 428.42C336.683 429.742 336.128 431.532 336.128 433.791C336.128 436.049 336.683 437.839 337.792 439.162ZM364.021 442H362.847V433.714H362.786C362.257 434.355 361.565 434.864 360.71 435.24C359.856 435.617 358.91 435.805 357.872 435.805C356.072 435.805 354.663 435.266 353.646 434.188C352.638 433.109 352.135 431.685 352.135 429.915V425.566H353.31V429.762C353.31 431.288 353.717 432.499 354.531 433.394C355.344 434.289 356.479 434.737 357.933 434.737C359.042 434.737 360.024 434.498 360.878 434.02C361.743 433.531 362.399 432.926 362.847 432.204V425.566H364.021V442ZM374.321 426.421C372.612 426.421 371.213 427.021 370.125 428.221C369.037 429.422 368.447 431.003 368.355 432.967H380.15C380.14 431.024 379.596 429.447 378.517 428.237C377.449 427.026 376.05 426.421 374.321 426.421ZM379.952 437.407H381.157C380.882 438.821 380.14 439.976 378.929 440.871C377.729 441.766 376.239 442.214 374.458 442.214C372.21 442.214 370.425 441.471 369.103 439.986C367.79 438.49 367.134 436.431 367.134 433.806C367.134 431.263 367.79 429.218 369.103 427.672C370.425 426.126 372.17 425.353 374.336 425.353C376.452 425.353 378.151 426.08 379.433 427.535C380.715 428.979 381.355 430.897 381.355 433.287V433.974H368.34V434.035C368.34 436.253 368.894 437.992 370.003 439.253C371.112 440.515 372.602 441.146 374.474 441.146C375.939 441.146 377.154 440.8 378.121 440.108C379.097 439.416 379.708 438.516 379.952 437.407ZM396.004 442V434.004H385.643V442H384.468V425.566H385.643V432.967H396.004V425.566H397.179V442H396.004ZM406.502 432.616H402.306V440.962H406.502C407.855 440.962 408.938 440.586 409.752 439.833C410.566 439.07 410.973 438.053 410.973 436.781C410.973 435.52 410.566 434.513 409.752 433.76C408.938 432.997 407.855 432.616 406.502 432.616ZM401.131 442V425.566H402.306V431.594H406.502C408.211 431.594 409.579 432.061 410.607 432.997C411.634 433.933 412.148 435.195 412.148 436.781C412.148 438.368 411.634 439.635 410.607 440.581C409.579 441.527 408.211 442 406.502 442H401.131ZM428.703 425.353C430.769 425.353 432.442 426.136 433.724 427.703C435.016 429.259 435.661 431.288 435.661 433.791C435.661 436.293 435.021 438.323 433.739 439.879C432.457 441.435 430.784 442.214 428.719 442.214C427.234 442.214 425.937 441.786 424.828 440.932C423.729 440.077 422.997 438.989 422.63 437.667H422.585V447.264H421.395V425.566H422.508V429.961H422.554C422.931 428.628 423.678 427.53 424.797 426.665C425.926 425.79 427.228 425.353 428.703 425.353ZM428.566 441.146C430.316 441.146 431.735 440.469 432.823 439.116C433.912 437.753 434.456 435.978 434.456 433.791C434.456 431.604 433.912 429.834 432.823 428.481C431.735 427.118 430.316 426.436 428.566 426.436C426.806 426.436 425.367 427.118 424.248 428.481C423.139 429.844 422.585 431.614 422.585 433.791C422.585 435.958 423.139 437.728 424.248 439.101C425.367 440.464 426.806 441.146 428.566 441.146ZM443.886 441.161C445.524 441.161 446.917 440.652 448.067 439.635C449.216 438.607 449.791 437.366 449.791 435.912V433.455L444.313 433.867C442.736 433.979 441.536 434.35 440.712 434.981C439.888 435.612 439.476 436.476 439.476 437.575C439.476 438.623 439.888 439.482 440.712 440.154C441.546 440.825 442.604 441.161 443.886 441.161ZM443.733 442.214C442.126 442.214 440.814 441.786 439.797 440.932C438.79 440.067 438.286 438.948 438.286 437.575C438.286 436.171 438.779 435.073 439.766 434.279C440.763 433.486 442.228 433.018 444.161 432.875L449.791 432.463V430.998C449.791 429.564 449.374 428.445 448.54 427.641C447.716 426.838 446.566 426.436 445.091 426.436C443.698 426.436 442.558 426.777 441.673 427.458C440.788 428.14 440.249 429.101 440.056 430.342H438.912C439.054 428.827 439.69 427.616 440.819 426.711C441.948 425.805 443.377 425.353 445.107 425.353C446.907 425.353 448.331 425.851 449.379 426.848C450.437 427.845 450.966 429.203 450.966 430.922V442H449.822V438.46H449.791C449.384 439.579 448.621 440.484 447.502 441.176C446.383 441.868 445.127 442.214 443.733 442.214ZM466.454 440.962V426.604H458.122C457.878 430.561 457.67 433.404 457.497 435.134C457.365 436.537 457.176 437.722 456.932 438.689C456.688 439.645 456.327 440.388 455.849 440.917V440.962H466.454ZM454.186 446.349H453.057V440.962H454.354C455.422 440.26 456.098 438.292 456.383 435.057C456.678 431.772 456.902 428.608 457.054 425.566H467.629V440.962H470.345V446.349H469.216V442H454.186V446.349ZM486.748 442V425.566H487.923V442H486.748ZM478.157 432.616H473.961V440.962H478.157C479.51 440.962 480.594 440.586 481.407 439.833C482.221 439.07 482.628 438.053 482.628 436.781C482.628 435.52 482.221 434.513 481.407 433.76C480.594 432.997 479.51 432.616 478.157 432.616ZM472.786 442V425.566H473.961V431.594H478.157C479.866 431.594 481.234 432.061 482.262 432.997C483.289 433.933 483.803 435.195 483.803 436.781C483.803 438.368 483.289 439.635 482.262 440.581C481.234 441.527 479.866 442 478.157 442H472.786ZM504.097 426.619H499.23V432.982H503.929C505.181 432.982 506.162 432.687 506.874 432.097C507.597 431.507 507.958 430.698 507.958 429.671C507.958 428.705 507.617 427.957 506.935 427.428C506.264 426.889 505.318 426.619 504.097 426.619ZM503.99 434.02H499.23V440.962H504.25C505.755 440.962 506.895 440.662 507.668 440.062C508.441 439.462 508.827 438.572 508.827 437.392C508.827 436.293 508.4 435.459 507.546 434.889C506.691 434.31 505.506 434.02 503.99 434.02ZM498.055 442V425.566H504.173C505.699 425.566 506.905 425.927 507.79 426.65C508.685 427.372 509.133 428.348 509.133 429.579C509.133 430.566 508.848 431.405 508.278 432.097C507.708 432.789 506.956 433.221 506.02 433.394V433.455C507.159 433.557 508.105 433.959 508.858 434.661C509.611 435.352 509.987 436.268 509.987 437.407C509.987 438.892 509.489 440.032 508.492 440.825C507.505 441.608 506.101 442 504.28 442H498.055ZM514.244 442H513.069V425.566H514.244V440.138H514.321L524.788 425.566H525.963V442H524.788V427.443H524.727L514.244 442ZM541.71 440.962V426.604H533.379C533.135 430.561 532.926 433.404 532.753 435.134C532.621 436.537 532.433 437.722 532.189 438.689C531.944 439.645 531.583 440.388 531.105 440.917V440.962H541.71ZM529.442 446.349H528.313V440.962H529.61C530.678 440.26 531.354 438.292 531.639 435.057C531.934 431.772 532.158 428.608 532.311 425.566H542.885V440.962H545.601V446.349H544.472V442H529.442V446.349ZM554.405 426.421C552.696 426.421 551.298 427.021 550.209 428.221C549.121 429.422 548.531 431.003 548.439 432.967H560.234C560.224 431.024 559.68 429.447 558.602 428.237C557.533 427.026 556.135 426.421 554.405 426.421ZM560.036 437.407H561.241C560.967 438.821 560.224 439.976 559.014 440.871C557.813 441.766 556.323 442.214 554.543 442.214C552.295 442.214 550.509 441.471 549.187 439.986C547.875 438.49 547.219 436.431 547.219 433.806C547.219 431.263 547.875 429.218 549.187 427.672C550.509 426.126 552.254 425.353 554.421 425.353C556.537 425.353 558.235 426.08 559.517 427.535C560.799 428.979 561.44 430.897 561.44 433.287V433.974H548.424V434.035C548.424 436.253 548.978 437.992 550.087 439.253C551.196 440.515 552.686 441.146 554.558 441.146C556.023 441.146 557.238 440.8 558.205 440.108C559.181 439.416 559.792 438.516 560.036 437.407ZM576.012 425.566V426.604H570.046V442H568.871V426.604H562.889V425.566H576.012ZM583.962 432.616H579.766V440.962H583.962C585.315 440.962 586.398 440.586 587.212 439.833C588.026 439.07 588.432 438.053 588.432 436.781C588.432 435.52 588.026 434.513 587.212 433.76C586.398 432.997 585.315 432.616 583.962 432.616ZM578.591 442V425.566H579.766V431.594H583.962C585.671 431.594 587.039 432.061 588.066 432.997C589.094 433.933 589.607 435.195 589.607 436.781C589.607 438.368 589.094 439.635 588.066 440.581C587.039 441.527 585.671 442 583.962 442H578.591ZM604.897 426.619H600.029V432.982H604.729C605.98 432.982 606.962 432.687 607.674 432.097C608.396 431.507 608.757 430.698 608.757 429.671C608.757 428.705 608.416 427.957 607.735 427.428C607.063 426.889 606.117 426.619 604.897 426.619ZM604.79 434.02H600.029V440.962H605.049C606.555 440.962 607.694 440.662 608.467 440.062C609.24 439.462 609.627 438.572 609.627 437.392C609.627 436.293 609.2 435.459 608.345 434.889C607.491 434.31 606.306 434.02 604.79 434.02ZM598.854 442V425.566H604.973C606.499 425.566 607.704 425.927 608.589 426.65C609.485 427.372 609.932 428.348 609.932 429.579C609.932 430.566 609.647 431.405 609.078 432.097C608.508 432.789 607.755 433.221 606.819 433.394V433.455C607.959 433.557 608.905 433.959 609.657 434.661C610.41 435.352 610.787 436.268 610.787 437.407C610.787 438.892 610.288 440.032 609.291 440.825C608.305 441.608 606.901 442 605.08 442H598.854ZM618.965 441.161C620.603 441.161 621.997 440.652 623.146 439.635C624.296 438.607 624.87 437.366 624.87 435.912V433.455L619.393 433.867C617.816 433.979 616.615 434.35 615.792 434.981C614.968 435.612 614.556 436.476 614.556 437.575C614.556 438.623 614.968 439.482 615.792 440.154C616.626 440.825 617.684 441.161 618.965 441.161ZM618.813 442.214C617.205 442.214 615.893 441.786 614.876 440.932C613.869 440.067 613.365 438.948 613.365 437.575C613.365 436.171 613.859 435.073 614.845 434.279C615.842 433.486 617.307 433.018 619.24 432.875L624.87 432.463V430.998C624.87 429.564 624.453 428.445 623.619 427.641C622.795 426.838 621.646 426.436 620.171 426.436C618.777 426.436 617.638 426.777 616.753 427.458C615.868 428.14 615.329 429.101 615.135 430.342H613.991C614.133 428.827 614.769 427.616 615.898 426.711C617.027 425.805 618.457 425.353 620.186 425.353C621.987 425.353 623.411 425.851 624.458 426.848C625.516 427.845 626.045 429.203 626.045 430.922V442H624.901V438.46H624.87C624.464 439.579 623.701 440.484 622.582 441.176C621.463 441.868 620.206 442.214 618.813 442.214ZM642.54 430.19H641.35C641.045 429.071 640.414 428.165 639.458 427.474C638.512 426.782 637.373 426.436 636.04 426.436C634.199 426.436 632.729 427.102 631.63 428.435C630.542 429.757 629.997 431.543 629.997 433.791C629.997 436.039 630.542 437.829 631.63 439.162C632.729 440.484 634.204 441.146 636.055 441.146C637.357 441.146 638.476 440.825 639.412 440.184C640.348 439.543 640.979 438.689 641.304 437.621H642.494C642.159 439.004 641.411 440.118 640.251 440.962C639.092 441.797 637.688 442.214 636.04 442.214C633.832 442.214 632.073 441.456 630.76 439.94C629.458 438.424 628.807 436.375 628.807 433.791C628.807 431.217 629.463 429.167 630.776 427.641C632.088 426.116 633.843 425.353 636.04 425.353C637.698 425.353 639.112 425.81 640.282 426.726C641.462 427.631 642.215 428.786 642.54 430.19ZM264.488 479V471.004H254.128V479H252.953V462.566H254.128V469.967H264.488V462.566H265.663V479H264.488ZM274.712 478.161C276.35 478.161 277.743 477.652 278.893 476.635C280.042 475.607 280.617 474.366 280.617 472.912V470.455L275.139 470.867C273.562 470.979 272.362 471.35 271.538 471.981C270.714 472.612 270.302 473.476 270.302 474.575C270.302 475.623 270.714 476.482 271.538 477.154C272.372 477.825 273.43 478.161 274.712 478.161ZM274.559 479.214C272.952 479.214 271.64 478.786 270.622 477.932C269.615 477.067 269.112 475.948 269.112 474.575C269.112 473.171 269.605 472.073 270.592 471.279C271.589 470.486 273.054 470.018 274.986 469.875L280.617 469.463V467.998C280.617 466.564 280.2 465.445 279.366 464.641C278.542 463.838 277.392 463.436 275.917 463.436C274.524 463.436 273.384 463.777 272.499 464.458C271.614 465.14 271.075 466.101 270.882 467.342H269.737C269.88 465.827 270.516 464.616 271.645 463.711C272.774 462.805 274.203 462.353 275.932 462.353C277.733 462.353 279.157 462.851 280.205 463.848C281.263 464.845 281.792 466.203 281.792 467.922V479H280.647V475.46H280.617C280.21 476.579 279.447 477.484 278.328 478.176C277.209 478.868 275.953 479.214 274.559 479.214ZM303.215 479V471.004H292.854V479H291.68V462.566H292.854V469.967H303.215V462.566H304.39V479H303.215ZM313.439 478.161C315.076 478.161 316.47 477.652 317.62 476.635C318.769 475.607 319.344 474.366 319.344 472.912V470.455L313.866 470.867C312.289 470.979 311.089 471.35 310.265 471.981C309.441 472.612 309.029 473.476 309.029 474.575C309.029 475.623 309.441 476.482 310.265 477.154C311.099 477.825 312.157 478.161 313.439 478.161ZM313.286 479.214C311.679 479.214 310.366 478.786 309.349 477.932C308.342 477.067 307.839 475.948 307.839 474.575C307.839 473.171 308.332 472.073 309.319 471.279C310.316 470.486 311.78 470.018 313.713 469.875L319.344 469.463V467.998C319.344 466.564 318.927 465.445 318.093 464.641C317.269 463.838 316.119 463.436 314.644 463.436C313.25 463.436 312.111 463.777 311.226 464.458C310.341 465.14 309.802 466.101 309.609 467.342H308.464C308.607 465.827 309.242 464.616 310.372 463.711C311.501 462.805 312.93 462.353 314.659 462.353C316.46 462.353 317.884 462.851 318.932 463.848C319.99 464.845 320.519 466.203 320.519 467.922V479H319.374V475.46H319.344C318.937 476.579 318.174 477.484 317.055 478.176C315.936 478.868 314.68 479.214 313.286 479.214ZM324.211 479V462.566H325.386V477.962H333.611V462.566H334.786V477.962H343.01V462.566H344.185V479H324.211ZM354.5 463.421C352.791 463.421 351.392 464.021 350.304 465.221C349.215 466.422 348.625 468.003 348.534 469.967H360.329C360.319 468.024 359.774 466.447 358.696 465.237C357.628 464.026 356.229 463.421 354.5 463.421ZM360.13 474.407H361.336C361.061 475.821 360.319 476.976 359.108 477.871C357.908 478.766 356.418 479.214 354.637 479.214C352.389 479.214 350.604 478.471 349.281 476.986C347.969 475.49 347.313 473.431 347.313 470.806C347.313 468.263 347.969 466.218 349.281 464.672C350.604 463.126 352.349 462.353 354.515 462.353C356.631 462.353 358.33 463.08 359.612 464.535C360.893 465.979 361.534 467.897 361.534 470.287V470.974H348.519V471.035C348.519 473.253 349.073 474.992 350.182 476.253C351.291 477.515 352.781 478.146 354.653 478.146C356.117 478.146 357.333 477.8 358.299 477.108C359.276 476.416 359.886 475.516 360.13 474.407ZM365.822 479H364.647V462.566H366.02L373.223 477.459H373.284L380.455 462.566H381.783V479H380.608V464.825H380.531L373.696 478.878H372.75L365.898 464.825H365.822V479ZM393.105 479H391.93V462.566H393.303L400.505 477.459H400.566L407.738 462.566H409.065V479H407.891V464.825H407.814L400.978 478.878H400.032L393.181 464.825H393.105V479ZM419.38 463.421C417.671 463.421 416.273 464.021 415.184 465.221C414.096 466.422 413.506 468.003 413.414 469.967H425.209C425.199 468.024 424.655 466.447 423.577 465.237C422.508 464.026 421.11 463.421 419.38 463.421ZM425.011 474.407H426.216C425.942 475.821 425.199 476.976 423.989 477.871C422.788 478.766 421.298 479.214 419.518 479.214C417.27 479.214 415.484 478.471 414.162 476.986C412.85 475.49 412.193 473.431 412.193 470.806C412.193 468.263 412.85 466.218 414.162 464.672C415.484 463.126 417.229 462.353 419.396 462.353C421.512 462.353 423.21 463.08 424.492 464.535C425.774 465.979 426.415 467.897 426.415 470.287V470.974H413.399V471.035C413.399 473.253 413.953 474.992 415.062 476.253C416.171 477.515 417.661 478.146 419.533 478.146C420.998 478.146 422.213 477.8 423.18 477.108C424.156 476.416 424.767 475.516 425.011 474.407ZM436.836 462.353C438.901 462.353 440.575 463.136 441.857 464.703C443.148 466.259 443.794 468.288 443.794 470.791C443.794 473.293 443.154 475.323 441.872 476.879C440.59 478.435 438.917 479.214 436.852 479.214C435.366 479.214 434.069 478.786 432.961 477.932C431.862 477.077 431.13 475.989 430.763 474.667H430.718V484.264H429.527V462.566H430.641V466.961H430.687C431.064 465.628 431.811 464.53 432.93 463.665C434.059 462.79 435.361 462.353 436.836 462.353ZM436.699 478.146C438.449 478.146 439.868 477.469 440.956 476.116C442.045 474.753 442.589 472.978 442.589 470.791C442.589 468.604 442.045 466.834 440.956 465.481C439.868 464.118 438.449 463.436 436.699 463.436C434.939 463.436 433.5 464.118 432.381 465.481C431.272 466.844 430.718 468.614 430.718 470.791C430.718 472.958 431.272 474.728 432.381 476.101C433.5 477.464 434.939 478.146 436.699 478.146ZM458.718 476.925C457.375 478.451 455.605 479.214 453.407 479.214C451.21 479.214 449.44 478.451 448.097 476.925C446.765 475.399 446.099 473.354 446.099 470.791C446.099 468.217 446.765 466.167 448.097 464.641C449.44 463.116 451.21 462.353 453.407 462.353C455.615 462.353 457.385 463.116 458.718 464.641C460.06 466.167 460.732 468.217 460.732 470.791C460.732 473.354 460.06 475.399 458.718 476.925ZM448.952 476.162C450.071 477.484 451.556 478.146 453.407 478.146C455.259 478.146 456.739 477.484 457.848 476.162C458.967 474.829 459.526 473.039 459.526 470.791C459.526 468.532 458.972 466.742 457.863 465.42C456.754 464.097 455.269 463.436 453.407 463.436C451.546 463.436 450.061 464.097 448.952 465.42C447.843 466.742 447.289 468.532 447.289 470.791C447.289 473.049 447.843 474.839 448.952 476.162ZM475.243 479V463.604H465.035V479H463.86V462.566H476.418V479H475.243ZM487.679 462.353C489.744 462.353 491.417 463.136 492.699 464.703C493.991 466.259 494.637 468.288 494.637 470.791C494.637 473.293 493.996 475.323 492.714 476.879C491.432 478.435 489.759 479.214 487.694 479.214C486.209 479.214 484.912 478.786 483.803 477.932C482.704 477.077 481.972 475.989 481.606 474.667H481.56V484.264H480.37V462.566H481.484V466.961H481.529C481.906 465.628 482.653 464.53 483.772 463.665C484.902 462.79 486.204 462.353 487.679 462.353ZM487.541 478.146C489.291 478.146 490.71 477.469 491.799 476.116C492.887 474.753 493.431 472.978 493.431 470.791C493.431 468.604 492.887 466.834 491.799 465.481C490.71 464.118 489.291 463.436 487.541 463.436C485.782 463.436 484.342 464.118 483.223 465.481C482.114 466.844 481.56 468.614 481.56 470.791C481.56 472.958 482.114 474.728 483.223 476.101C484.342 477.464 485.782 478.146 487.541 478.146ZM498.94 479H497.765V462.566H498.94V477.138H499.016L509.484 462.566H510.658V479H509.484V464.443H509.422L498.94 479ZM519.646 471.34H524.056V463.604H519.646C518.283 463.604 517.194 463.96 516.38 464.672C515.567 465.374 515.16 466.32 515.16 467.51C515.16 468.66 515.567 469.585 516.38 470.287C517.204 470.989 518.293 471.34 519.646 471.34ZM524.056 479V472.378H519.875L514.916 479H513.512L518.593 472.225C517.169 472.062 516.045 471.564 515.221 470.73C514.397 469.896 513.985 468.827 513.985 467.525C513.985 466 514.493 464.794 515.511 463.909C516.538 463.014 517.917 462.566 519.646 462.566H525.231V479H524.056ZM540.932 462.566V463.604H534.966V479H533.791V463.604H527.809V462.566H540.932ZM544.686 479H543.511V462.566H544.686V477.138H544.762L555.229 462.566H556.404V479H555.229V464.443H555.168L544.686 479ZM561.531 479H560.356V462.566H561.531V477.138H561.608L572.075 462.566H573.25V479H572.075V464.443H572.014L561.531 479ZM578.499 456.982H579.75L579.704 472.5H578.545L578.499 456.982ZM579.125 479.153C578.83 479.153 578.575 479.051 578.362 478.847C578.148 478.634 578.041 478.374 578.041 478.069C578.041 477.774 578.148 477.525 578.362 477.322C578.575 477.108 578.83 477.001 579.125 477.001C579.43 477.001 579.684 477.108 579.888 477.322C580.101 477.525 580.208 477.774 580.208 478.069C580.208 478.374 580.101 478.634 579.888 478.847C579.684 479.051 579.43 479.153 579.125 479.153ZM217.323 516H216.118V495.095H202.385V516H201.18V493.982H217.323V516ZM233.193 513.925C231.85 515.451 230.08 516.214 227.883 516.214C225.685 516.214 223.915 515.451 222.573 513.925C221.24 512.399 220.574 510.354 220.574 507.791C220.574 505.217 221.24 503.167 222.573 501.641C223.915 500.116 225.685 499.353 227.883 499.353C230.09 499.353 231.86 500.116 233.193 501.641C234.535 503.167 235.207 505.217 235.207 507.791C235.207 510.354 234.535 512.399 233.193 513.925ZM223.427 513.162C224.546 514.484 226.031 515.146 227.883 515.146C229.734 515.146 231.214 514.484 232.323 513.162C233.442 511.829 234.001 510.039 234.001 507.791C234.001 505.532 233.447 503.742 232.338 502.42C231.229 501.097 229.744 500.436 227.883 500.436C226.021 500.436 224.536 501.097 223.427 502.42C222.318 503.742 221.764 505.532 221.764 507.791C221.764 510.049 222.318 511.839 223.427 513.162ZM248.573 507.409L257.24 516H255.593L247.399 507.837H247.338V516H246.163V507.837H246.102L237.908 516H236.305L244.942 507.455L236.672 499.566H238.259L246.102 507.119H246.163V499.566H247.338V507.119H247.399L255.242 499.566H256.798L248.573 507.409ZM264.336 515.161C265.974 515.161 267.367 514.652 268.517 513.635C269.666 512.607 270.241 511.366 270.241 509.912V507.455L264.763 507.867C263.186 507.979 261.986 508.35 261.162 508.981C260.338 509.612 259.926 510.476 259.926 511.575C259.926 512.623 260.338 513.482 261.162 514.154C261.996 514.825 263.054 515.161 264.336 515.161ZM264.183 516.214C262.576 516.214 261.264 515.786 260.246 514.932C259.239 514.067 258.736 512.948 258.736 511.575C258.736 510.171 259.229 509.073 260.216 508.279C261.213 507.486 262.678 507.018 264.61 506.875L270.241 506.463V504.998C270.241 503.564 269.824 502.445 268.99 501.641C268.166 500.838 267.016 500.436 265.541 500.436C264.148 500.436 263.008 500.777 262.123 501.458C261.238 502.14 260.699 503.101 260.506 504.342H259.361C259.504 502.827 260.14 501.616 261.269 500.711C262.398 499.805 263.827 499.353 265.557 499.353C267.357 499.353 268.781 499.851 269.829 500.848C270.887 501.845 271.416 503.203 271.416 504.922V516H270.271V512.46H270.241C269.834 513.579 269.071 514.484 267.952 515.176C266.833 515.868 265.577 516.214 264.183 516.214ZM278.13 509.134C278.059 509.988 277.972 510.731 277.87 511.361C277.779 511.992 277.636 512.623 277.443 513.253C277.26 513.884 277.036 514.398 276.772 514.795C276.517 515.191 276.182 515.517 275.765 515.771C275.358 516.015 274.885 516.137 274.346 516.137C273.929 516.137 273.644 516.086 273.491 515.985V514.901C273.674 514.993 273.949 515.039 274.315 515.039C274.671 515.039 274.986 514.937 275.261 514.734C275.546 514.53 275.78 514.26 275.963 513.925C276.156 513.589 276.319 513.157 276.451 512.628C276.594 512.099 276.706 511.555 276.787 510.995C276.868 510.436 276.94 509.79 277.001 509.057C277.245 506.29 277.458 503.127 277.641 499.566H287.819V516H286.644V500.604H278.725C278.471 504.795 278.272 507.638 278.13 509.134ZM292.9 521.402C292.656 521.402 292.381 521.356 292.076 521.264V520.211C292.32 520.293 292.605 520.333 292.931 520.333C293.663 520.333 294.258 520.105 294.716 519.647C295.174 519.189 295.616 518.406 296.044 517.297L296.456 516.229L290.169 499.566H291.435L297.066 514.84H297.096L302.727 499.566H303.978L297.615 516.519C296.873 518.482 296.191 519.784 295.571 520.425C294.95 521.076 294.06 521.402 292.9 521.402ZM308.891 493.066H309.883C309.883 493.992 310.168 494.729 310.738 495.279C311.307 495.818 312.081 496.087 313.057 496.087C314.034 496.087 314.807 495.818 315.376 495.279C315.946 494.729 316.231 493.992 316.231 493.066H317.223C317.223 494.256 316.846 495.197 316.094 495.889C315.341 496.581 314.329 496.927 313.057 496.927C311.786 496.927 310.773 496.581 310.021 495.889C309.268 495.197 308.891 494.256 308.891 493.066ZM307.503 516H306.328V499.566H307.503V514.138H307.579L318.047 499.566H319.222V516H318.047V501.443H317.986L307.503 516ZM335.976 504.19H334.786C334.48 503.071 333.85 502.165 332.894 501.474C331.948 500.782 330.808 500.436 329.476 500.436C327.634 500.436 326.164 501.102 325.066 502.435C323.977 503.757 323.433 505.543 323.433 507.791C323.433 510.039 323.977 511.829 325.066 513.162C326.164 514.484 327.639 515.146 329.491 515.146C330.793 515.146 331.912 514.825 332.848 514.184C333.784 513.543 334.414 512.689 334.74 511.621H335.93C335.594 513.004 334.847 514.118 333.687 514.962C332.527 515.797 331.124 516.214 329.476 516.214C327.268 516.214 325.508 515.456 324.196 513.94C322.894 512.424 322.243 510.375 322.243 507.791C322.243 505.217 322.899 503.167 324.211 501.641C325.524 500.116 327.278 499.353 329.476 499.353C331.134 499.353 332.548 499.81 333.718 500.726C334.898 501.631 335.65 502.786 335.976 504.19ZM350.258 499.566V500.604H344.292V516H343.117V500.604H337.135V499.566H350.258ZM356.468 515.161C358.106 515.161 359.5 514.652 360.649 513.635C361.799 512.607 362.374 511.366 362.374 509.912V507.455L356.896 507.867C355.319 507.979 354.119 508.35 353.295 508.981C352.471 509.612 352.059 510.476 352.059 511.575C352.059 512.623 352.471 513.482 353.295 514.154C354.129 514.825 355.187 515.161 356.468 515.161ZM356.316 516.214C354.709 516.214 353.396 515.786 352.379 514.932C351.372 514.067 350.868 512.948 350.868 511.575C350.868 510.171 351.362 509.073 352.349 508.279C353.345 507.486 354.81 507.018 356.743 506.875L362.374 506.463V504.998C362.374 503.564 361.956 502.445 361.122 501.641C360.298 500.838 359.149 500.436 357.674 500.436C356.28 500.436 355.141 500.777 354.256 501.458C353.371 502.14 352.832 503.101 352.638 504.342H351.494C351.636 502.827 352.272 501.616 353.401 500.711C354.531 499.805 355.96 499.353 357.689 499.353C359.49 499.353 360.914 499.851 361.962 500.848C363.019 501.845 363.548 503.203 363.548 504.922V516H362.404V512.46H362.374C361.967 513.579 361.204 514.484 360.085 515.176C358.966 515.868 357.709 516.214 356.316 516.214ZM368.599 519.387H367.653L368.645 513.253H369.911L368.599 519.387ZM392.479 516V500.604H382.271V516H381.096V499.566H393.654V516H392.479ZM409.401 513.925C408.058 515.451 406.288 516.214 404.091 516.214C401.894 516.214 400.124 515.451 398.781 513.925C397.448 512.399 396.782 510.354 396.782 507.791C396.782 505.217 397.448 503.167 398.781 501.641C400.124 500.116 401.894 499.353 404.091 499.353C406.299 499.353 408.069 500.116 409.401 501.641C410.744 503.167 411.415 505.217 411.415 507.791C411.415 510.354 410.744 512.399 409.401 513.925ZM399.635 513.162C400.754 514.484 402.24 515.146 404.091 515.146C405.942 515.146 407.423 514.484 408.531 513.162C409.65 511.829 410.21 510.039 410.21 507.791C410.21 505.532 409.655 503.742 408.547 502.42C407.438 501.097 405.953 500.436 404.091 500.436C402.229 500.436 400.744 501.097 399.635 502.42C398.527 503.742 397.972 505.532 397.972 507.791C397.972 510.049 398.527 511.839 399.635 513.162ZM426.216 514.962V500.604H417.885C417.641 504.561 417.432 507.404 417.259 509.134C417.127 510.537 416.939 511.722 416.695 512.689C416.451 513.645 416.09 514.388 415.611 514.917V514.962H426.216ZM413.948 520.349H412.819V514.962H414.116C415.184 514.26 415.861 512.292 416.146 509.057C416.441 505.772 416.664 502.608 416.817 499.566H427.391V514.962H430.107V520.349H428.978V516H413.948V520.349ZM443.764 499.566V500.604H437.798V516H436.623V500.604H430.641V499.566H443.764ZM452.385 500.619H447.518V506.982H452.217C453.469 506.982 454.45 506.687 455.162 506.097C455.884 505.507 456.246 504.698 456.246 503.671C456.246 502.705 455.905 501.957 455.223 501.428C454.552 500.889 453.606 500.619 452.385 500.619ZM452.278 508.02H447.518V514.962H452.538C454.043 514.962 455.183 514.662 455.956 514.062C456.729 513.462 457.115 512.572 457.115 511.392C457.115 510.293 456.688 509.459 455.834 508.889C454.979 508.31 453.794 508.02 452.278 508.02ZM446.343 516V499.566H452.461C453.987 499.566 455.193 499.927 456.078 500.65C456.973 501.372 457.421 502.348 457.421 503.579C457.421 504.566 457.136 505.405 456.566 506.097C455.996 506.789 455.244 507.221 454.308 507.394V507.455C455.447 507.557 456.393 507.959 457.146 508.661C457.899 509.352 458.275 510.268 458.275 511.407C458.275 512.892 457.777 514.032 456.78 514.825C455.793 515.608 454.389 516 452.568 516H446.343ZM467.72 500.421C466.011 500.421 464.613 501.021 463.524 502.221C462.436 503.422 461.846 505.003 461.754 506.967H473.549C473.539 505.024 472.995 503.447 471.916 502.237C470.848 501.026 469.45 500.421 467.72 500.421ZM473.351 511.407H474.556C474.281 512.821 473.539 513.976 472.328 514.871C471.128 515.766 469.638 516.214 467.858 516.214C465.609 516.214 463.824 515.471 462.502 513.986C461.189 512.49 460.533 510.431 460.533 507.806C460.533 505.263 461.189 503.218 462.502 501.672C463.824 500.126 465.569 499.353 467.735 499.353C469.851 499.353 471.55 500.08 472.832 501.535C474.114 502.979 474.755 504.897 474.755 507.287V507.974H461.739V508.035C461.739 510.253 462.293 511.992 463.402 513.253C464.511 514.515 466.001 515.146 467.873 515.146C469.338 515.146 470.553 514.8 471.52 514.108C472.496 513.416 473.107 512.516 473.351 511.407ZM485.176 499.353C487.241 499.353 488.915 500.136 490.196 501.703C491.488 503.259 492.134 505.288 492.134 507.791C492.134 510.293 491.493 512.323 490.212 513.879C488.93 515.435 487.257 516.214 485.192 516.214C483.706 516.214 482.409 515.786 481.301 514.932C480.202 514.077 479.469 512.989 479.103 511.667H479.057V521.264H477.867V499.566H478.981V503.961H479.027C479.403 502.628 480.151 501.53 481.27 500.665C482.399 499.79 483.701 499.353 485.176 499.353ZM485.039 515.146C486.789 515.146 488.208 514.469 489.296 513.116C490.385 511.753 490.929 509.978 490.929 507.791C490.929 505.604 490.385 503.834 489.296 502.481C488.208 501.118 486.789 500.436 485.039 500.436C483.279 500.436 481.84 501.118 480.721 502.481C479.612 503.844 479.057 505.614 479.057 507.791C479.057 509.958 479.612 511.728 480.721 513.101C481.84 514.464 483.279 515.146 485.039 515.146ZM506.935 514.962V500.604H498.604C498.36 504.561 498.151 507.404 497.978 509.134C497.846 510.537 497.658 511.722 497.414 512.689C497.17 513.645 496.809 514.388 496.33 514.917V514.962H506.935ZM494.667 520.349H493.538V514.962H494.835C495.903 514.26 496.58 512.292 496.865 509.057C497.16 505.772 497.383 502.608 497.536 499.566H508.11V514.962H510.826V520.349H509.697V516H494.667V520.349ZM514.443 516H513.268V499.566H514.443V514.138H514.519L524.986 499.566H526.161V516H524.986V501.443H524.925L514.443 516ZM541.878 499.566V500.604H535.912V516H534.737V500.604H528.755V499.566H541.878ZM550.057 500.421C548.348 500.421 546.949 501.021 545.86 502.221C544.772 503.422 544.182 505.003 544.09 506.967H555.885C555.875 505.024 555.331 503.447 554.253 502.237C553.185 501.026 551.786 500.421 550.057 500.421ZM555.687 511.407H556.893C556.618 512.821 555.875 513.976 554.665 514.871C553.464 515.766 551.974 516.214 550.194 516.214C547.946 516.214 546.161 515.471 544.838 513.986C543.526 512.49 542.87 510.431 542.87 507.806C542.87 505.263 543.526 503.218 544.838 501.672C546.161 500.126 547.905 499.353 550.072 499.353C552.188 499.353 553.887 500.08 555.168 501.535C556.45 502.979 557.091 504.897 557.091 507.287V507.974H544.075V508.035C544.075 510.253 544.63 511.992 545.738 513.253C546.847 514.515 548.337 515.146 550.209 515.146C551.674 515.146 552.89 514.8 553.856 514.108C554.833 513.416 555.443 512.516 555.687 511.407ZM579.201 504.19H578.011C577.706 503.071 577.075 502.165 576.119 501.474C575.173 500.782 574.033 500.436 572.701 500.436C570.859 500.436 569.39 501.102 568.291 502.435C567.202 503.757 566.658 505.543 566.658 507.791C566.658 510.039 567.202 511.829 568.291 513.162C569.39 514.484 570.865 515.146 572.716 515.146C574.018 515.146 575.137 514.825 576.073 514.184C577.009 513.543 577.639 512.689 577.965 511.621H579.155C578.819 513.004 578.072 514.118 576.912 514.962C575.752 515.797 574.349 516.214 572.701 516.214C570.493 516.214 568.733 515.456 567.421 513.94C566.119 512.424 565.468 510.375 565.468 507.791C565.468 505.217 566.124 503.167 567.436 501.641C568.749 500.116 570.503 499.353 572.701 499.353C574.359 499.353 575.773 499.81 576.943 500.726C578.123 501.631 578.875 502.786 579.201 504.19ZM588.28 500.619H583.412V506.982H588.112C589.363 506.982 590.345 506.687 591.057 506.097C591.779 505.507 592.14 504.698 592.14 503.671C592.14 502.705 591.8 501.957 591.118 501.428C590.447 500.889 589.501 500.619 588.28 500.619ZM588.173 508.02H583.412V514.962H588.432C589.938 514.962 591.077 514.662 591.85 514.062C592.624 513.462 593.01 512.572 593.01 511.392C593.01 510.293 592.583 509.459 591.728 508.889C590.874 508.31 589.689 508.02 588.173 508.02ZM582.237 516V499.566H588.356C589.882 499.566 591.088 499.927 591.973 500.65C592.868 501.372 593.315 502.348 593.315 503.579C593.315 504.566 593.03 505.405 592.461 506.097C591.891 506.789 591.138 507.221 590.203 507.394V507.455C591.342 507.557 592.288 507.959 593.041 508.661C593.793 509.352 594.17 510.268 594.17 511.407C594.17 512.892 593.671 514.032 592.674 514.825C591.688 515.608 590.284 516 588.463 516H582.237ZM609.047 513.925C607.704 515.451 605.934 516.214 603.737 516.214C601.54 516.214 599.77 515.451 598.427 513.925C597.094 512.399 596.428 510.354 596.428 507.791C596.428 505.217 597.094 503.167 598.427 501.641C599.77 500.116 601.54 499.353 603.737 499.353C605.944 499.353 607.715 500.116 609.047 501.641C610.39 503.167 611.061 505.217 611.061 507.791C611.061 510.354 610.39 512.399 609.047 513.925ZM599.281 513.162C600.4 514.484 601.886 515.146 603.737 515.146C605.588 515.146 607.069 514.484 608.177 513.162C609.296 511.829 609.856 510.039 609.856 507.791C609.856 505.532 609.301 503.742 608.193 502.42C607.084 501.097 605.599 500.436 603.737 500.436C601.875 500.436 600.39 501.097 599.281 502.42C598.173 503.742 597.618 505.532 597.618 507.791C597.618 510.049 598.173 511.839 599.281 513.162ZM620.552 500.421C618.843 500.421 617.445 501.021 616.356 502.221C615.268 503.422 614.678 505.003 614.586 506.967H626.381C626.371 505.024 625.827 503.447 624.748 502.237C623.68 501.026 622.282 500.421 620.552 500.421ZM626.183 511.407H627.388C627.114 512.821 626.371 513.976 625.16 514.871C623.96 515.766 622.47 516.214 620.69 516.214C618.441 516.214 616.656 515.471 615.334 513.986C614.021 512.49 613.365 510.431 613.365 507.806C613.365 505.263 614.021 503.218 615.334 501.672C616.656 500.126 618.401 499.353 620.568 499.353C622.683 499.353 624.382 500.08 625.664 501.535C626.946 502.979 627.587 504.897 627.587 507.287V507.974H614.571V508.035C614.571 510.253 615.125 511.992 616.234 513.253C617.343 514.515 618.833 515.146 620.705 515.146C622.17 515.146 623.385 514.8 624.352 514.108C625.328 513.416 625.939 512.516 626.183 511.407ZM230.278 553V537.604H220.07V553H218.895V536.566H231.453V553H230.278ZM242.714 536.353C244.779 536.353 246.453 537.136 247.734 538.703C249.026 540.259 249.672 542.288 249.672 544.791C249.672 547.293 249.031 549.323 247.75 550.879C246.468 552.435 244.794 553.214 242.729 553.214C241.244 553.214 239.947 552.786 238.838 551.932C237.74 551.077 237.007 549.989 236.641 548.667H236.595V558.264H235.405V536.566H236.519V540.961H236.565C236.941 539.628 237.689 538.53 238.808 537.665C239.937 536.79 241.239 536.353 242.714 536.353ZM242.577 552.146C244.326 552.146 245.746 551.469 246.834 550.116C247.922 548.753 248.467 546.978 248.467 544.791C248.467 542.604 247.922 540.834 246.834 539.481C245.746 538.118 244.326 537.436 242.577 537.436C240.817 537.436 239.378 538.118 238.259 539.481C237.15 540.844 236.595 542.614 236.595 544.791C236.595 546.958 237.15 548.728 238.259 550.101C239.378 551.464 240.817 552.146 242.577 552.146ZM253.975 553H252.8V536.566H253.975V551.138H254.051L264.519 536.566H265.694V553H264.519V538.443H264.458L253.975 553ZM282.448 541.19H281.258C280.953 540.071 280.322 539.165 279.366 538.474C278.42 537.782 277.28 537.436 275.948 537.436C274.107 537.436 272.637 538.102 271.538 539.435C270.45 540.757 269.905 542.543 269.905 544.791C269.905 547.039 270.45 548.829 271.538 550.162C272.637 551.484 274.112 552.146 275.963 552.146C277.265 552.146 278.384 551.825 279.32 551.184C280.256 550.543 280.887 549.689 281.212 548.621H282.402C282.067 550.004 281.319 551.118 280.159 551.962C279 552.797 277.596 553.214 275.948 553.214C273.74 553.214 271.98 552.456 270.668 550.94C269.366 549.424 268.715 547.375 268.715 544.791C268.715 542.217 269.371 540.167 270.683 538.641C271.996 537.116 273.75 536.353 275.948 536.353C277.606 536.353 279.02 536.81 280.19 537.726C281.37 538.631 282.122 539.786 282.448 541.19ZM286.614 558.402C286.37 558.402 286.095 558.356 285.79 558.264V557.211C286.034 557.293 286.319 557.333 286.644 557.333C287.377 557.333 287.972 557.105 288.429 556.647C288.887 556.189 289.33 555.406 289.757 554.297L290.169 553.229L283.882 536.566H285.149L290.779 551.84H290.81L296.44 536.566H297.692L291.329 553.519C290.586 555.482 289.904 556.784 289.284 557.425C288.663 558.076 287.773 558.402 286.614 558.402ZM311.806 536.566V537.604H305.84V553H304.665V537.604H298.683V536.566H311.806ZM326.424 541.19H325.234C324.928 540.071 324.298 539.165 323.342 538.474C322.396 537.782 321.256 537.436 319.924 537.436C318.082 537.436 316.612 538.102 315.514 539.435C314.425 540.757 313.881 542.543 313.881 544.791C313.881 547.039 314.425 548.829 315.514 550.162C316.612 551.484 318.087 552.146 319.939 552.146C321.241 552.146 322.36 551.825 323.296 551.184C324.232 550.543 324.862 549.689 325.188 548.621H326.378C326.042 550.004 325.295 551.118 324.135 551.962C322.975 552.797 321.572 553.214 319.924 553.214C317.716 553.214 315.956 552.456 314.644 550.94C313.342 549.424 312.691 547.375 312.691 544.791C312.691 542.217 313.347 540.167 314.659 538.641C315.972 537.116 317.726 536.353 319.924 536.353C321.582 536.353 322.996 536.81 324.166 537.726C325.346 538.631 326.098 539.786 326.424 541.19ZM340.706 536.566V537.604H334.74V553H333.565V537.604H327.583V536.566H340.706ZM349.327 537.619H344.46V543.982H349.159C350.411 543.982 351.392 543.687 352.104 543.097C352.827 542.507 353.188 541.698 353.188 540.671C353.188 539.705 352.847 538.957 352.165 538.428C351.494 537.889 350.548 537.619 349.327 537.619ZM349.22 545.02H344.46V551.962H349.48C350.985 551.962 352.125 551.662 352.898 551.062C353.671 550.462 354.057 549.572 354.057 548.392C354.057 547.293 353.63 546.459 352.776 545.889C351.921 545.31 350.736 545.02 349.22 545.02ZM343.285 553V536.566H349.404C350.929 536.566 352.135 536.927 353.02 537.65C353.915 538.372 354.363 539.348 354.363 540.579C354.363 541.566 354.078 542.405 353.508 543.097C352.939 543.789 352.186 544.221 351.25 544.394V544.455C352.389 544.557 353.335 544.959 354.088 545.661C354.841 546.352 355.217 547.268 355.217 548.407C355.217 549.892 354.719 551.032 353.722 551.825C352.735 552.608 351.331 553 349.51 553H343.285ZM359.474 553H358.299V536.566H359.474V551.138H359.551L370.018 536.566H371.193V553H370.018V538.443H369.957L359.474 553ZM381.508 537.421C379.799 537.421 378.4 538.021 377.312 539.221C376.223 540.422 375.633 542.003 375.542 543.967H387.337C387.327 542.024 386.783 540.447 385.704 539.237C384.636 538.026 383.237 537.421 381.508 537.421ZM387.139 548.407H388.344C388.069 549.821 387.327 550.976 386.116 551.871C384.916 552.766 383.426 553.214 381.645 553.214C379.397 553.214 377.612 552.471 376.29 550.986C374.977 549.49 374.321 547.431 374.321 544.806C374.321 542.263 374.977 540.218 376.29 538.672C377.612 537.126 379.357 536.353 381.523 536.353C383.639 536.353 385.338 537.08 386.62 538.535C387.901 539.979 388.542 541.897 388.542 544.287V544.974H375.527V545.035C375.527 547.253 376.081 548.992 377.19 550.253C378.299 551.515 379.789 552.146 381.661 552.146C383.125 552.146 384.341 551.8 385.307 551.108C386.284 550.416 386.894 549.516 387.139 548.407ZM409.233 553V537.604H399.025V553H397.85V536.566H410.408V553H409.233ZM426.155 550.925C424.812 552.451 423.042 553.214 420.845 553.214C418.648 553.214 416.878 552.451 415.535 550.925C414.203 549.399 413.536 547.354 413.536 544.791C413.536 542.217 414.203 540.167 415.535 538.641C416.878 537.116 418.648 536.353 420.845 536.353C423.053 536.353 424.823 537.116 426.155 538.641C427.498 540.167 428.169 542.217 428.169 544.791C428.169 547.354 427.498 549.399 426.155 550.925ZM416.39 550.162C417.509 551.484 418.994 552.146 420.845 552.146C422.697 552.146 424.177 551.484 425.286 550.162C426.405 548.829 426.964 547.039 426.964 544.791C426.964 542.532 426.41 540.742 425.301 539.42C424.192 538.097 422.707 537.436 420.845 537.436C418.984 537.436 417.498 538.097 416.39 539.42C415.281 540.742 414.726 542.532 414.726 544.791C414.726 547.049 415.281 548.839 416.39 550.162ZM450.295 541.19H449.104C448.799 540.071 448.169 539.165 447.212 538.474C446.266 537.782 445.127 537.436 443.794 537.436C441.953 537.436 440.483 538.102 439.385 539.435C438.296 540.757 437.752 542.543 437.752 544.791C437.752 547.039 438.296 548.829 439.385 550.162C440.483 551.484 441.958 552.146 443.81 552.146C445.112 552.146 446.231 551.825 447.167 551.184C448.102 550.543 448.733 549.689 449.059 548.621H450.249C449.913 550.004 449.166 551.118 448.006 551.962C446.846 552.797 445.442 553.214 443.794 553.214C441.587 553.214 439.827 552.456 438.515 550.94C437.213 549.424 436.562 547.375 436.562 544.791C436.562 542.217 437.218 540.167 438.53 538.641C439.842 537.116 441.597 536.353 443.794 536.353C445.453 536.353 446.867 536.81 448.036 537.726C449.216 538.631 449.969 539.786 450.295 541.19ZM466.133 541.19H464.943C464.638 540.071 464.007 539.165 463.051 538.474C462.105 537.782 460.966 537.436 459.633 537.436C457.792 537.436 456.322 538.102 455.223 539.435C454.135 540.757 453.591 542.543 453.591 544.791C453.591 547.039 454.135 548.829 455.223 550.162C456.322 551.484 457.797 552.146 459.648 552.146C460.95 552.146 462.069 551.825 463.005 551.184C463.941 550.543 464.572 549.689 464.897 548.621H466.088C465.752 550.004 465.004 551.118 463.844 551.962C462.685 552.797 461.281 553.214 459.633 553.214C457.426 553.214 455.666 552.456 454.354 550.94C453.051 549.424 452.4 547.375 452.4 544.791C452.4 542.217 453.057 540.167 454.369 538.641C455.681 537.116 457.436 536.353 459.633 536.353C461.291 536.353 462.705 536.81 463.875 537.726C465.055 538.631 465.808 539.786 466.133 541.19ZM483.132 553V536.566H484.307V553H483.132ZM474.541 543.616H470.345V551.962H474.541C475.894 551.962 476.977 551.586 477.791 550.833C478.605 550.07 479.012 549.053 479.012 547.781C479.012 546.52 478.605 545.513 477.791 544.76C476.977 543.997 475.894 543.616 474.541 543.616ZM469.17 553V536.566H470.345V542.594H474.541C476.25 542.594 477.618 543.061 478.646 543.997C479.673 544.933 480.187 546.195 480.187 547.781C480.187 549.368 479.673 550.635 478.646 551.581C477.618 552.527 476.25 553 474.541 553H469.17ZM491.265 546.134C491.193 546.988 491.107 547.731 491.005 548.361C490.914 548.992 490.771 549.623 490.578 550.253C490.395 550.884 490.171 551.398 489.906 551.795C489.652 552.191 489.316 552.517 488.899 552.771C488.493 553.015 488.019 553.137 487.48 553.137C487.063 553.137 486.778 553.086 486.626 552.985V551.901C486.809 551.993 487.084 552.039 487.45 552.039C487.806 552.039 488.121 551.937 488.396 551.734C488.681 551.53 488.915 551.26 489.098 550.925C489.291 550.589 489.454 550.157 489.586 549.628C489.728 549.099 489.84 548.555 489.922 547.995C490.003 547.436 490.074 546.79 490.135 546.057C490.38 543.29 490.593 540.127 490.776 536.566H500.954V553H499.779V537.604H491.86C491.605 541.795 491.407 544.638 491.265 546.134ZM507.347 544.44L517.006 553H515.343L506.142 544.837H506.081V553H504.906V536.566H506.081V544.119H506.142L514.992 536.566H516.579L507.347 544.44ZM525.215 537.421C523.506 537.421 522.108 538.021 521.019 539.221C519.931 540.422 519.341 542.003 519.249 543.967H531.044C531.034 542.024 530.49 540.447 529.411 539.237C528.343 538.026 526.945 537.421 525.215 537.421ZM530.846 548.407H532.051C531.777 549.821 531.034 550.976 529.823 551.871C528.623 552.766 527.133 553.214 525.353 553.214C523.105 553.214 521.319 552.471 519.997 550.986C518.685 549.49 518.028 547.431 518.028 544.806C518.028 542.263 518.685 540.218 519.997 538.672C521.319 537.126 523.064 536.353 525.231 536.353C527.346 536.353 529.045 537.08 530.327 538.535C531.609 539.979 532.25 541.897 532.25 544.287V544.974H519.234V545.035C519.234 547.253 519.788 548.992 520.897 550.253C522.006 551.515 523.496 552.146 525.368 552.146C526.833 552.146 528.048 551.8 529.015 551.108C529.991 550.416 530.602 549.516 530.846 548.407ZM553.093 553V545.004H542.732V553H541.557V536.566H542.732V543.967H553.093V536.566H554.268V553H553.093ZM559.395 553H558.22V536.566H559.395V551.138H559.471L569.939 536.566H571.114V553H569.939V538.443H569.878L559.395 553ZM585.762 544.409L594.429 553H592.781L584.587 544.837H584.526V553H583.351V544.837H583.29L575.096 553H573.494L582.131 544.455L573.86 536.566H575.447L583.29 544.119H583.351V536.566H584.526V544.119H584.587L592.43 536.566H593.987L585.762 544.409ZM602.699 537.421C600.99 537.421 599.592 538.021 598.503 539.221C597.415 540.422 596.825 542.003 596.733 543.967H608.528C608.518 542.024 607.974 540.447 606.896 539.237C605.828 538.026 604.429 537.421 602.699 537.421ZM608.33 548.407H609.535C609.261 549.821 608.518 550.976 607.308 551.871C606.107 552.766 604.617 553.214 602.837 553.214C600.589 553.214 598.803 552.471 597.481 550.986C596.169 549.49 595.513 547.431 595.513 544.806C595.513 542.263 596.169 540.218 597.481 538.672C598.803 537.126 600.548 536.353 602.715 536.353C604.831 536.353 606.529 537.08 607.811 538.535C609.093 539.979 609.734 541.897 609.734 544.287V544.974H596.718V545.035C596.718 547.253 597.272 548.992 598.381 550.253C599.49 551.515 600.98 552.146 602.852 552.146C604.317 552.146 605.533 551.8 606.499 551.108C607.475 550.416 608.086 549.516 608.33 548.407ZM328.957 588.962V574.604H320.625C320.381 578.561 320.173 581.404 320 583.134C319.868 584.537 319.679 585.722 319.435 586.689C319.191 587.645 318.83 588.388 318.352 588.917V588.962H328.957ZM316.689 594.349H315.56V588.962H316.857C317.925 588.26 318.601 586.292 318.886 583.057C319.181 579.772 319.405 576.608 319.557 573.566H330.132V588.962H332.848V594.349H331.719V590H316.689V594.349ZM347.084 587.925C345.741 589.451 343.971 590.214 341.774 590.214C339.577 590.214 337.807 589.451 336.464 587.925C335.132 586.399 334.465 584.354 334.465 581.791C334.465 579.217 335.132 577.167 336.464 575.641C337.807 574.116 339.577 573.353 341.774 573.353C343.982 573.353 345.752 574.116 347.084 575.641C348.427 577.167 349.098 579.217 349.098 581.791C349.098 584.354 348.427 586.399 347.084 587.925ZM337.319 587.162C338.438 588.484 339.923 589.146 341.774 589.146C343.626 589.146 345.106 588.484 346.214 587.162C347.333 585.829 347.893 584.039 347.893 581.791C347.893 579.532 347.339 577.742 346.23 576.42C345.121 575.097 343.636 574.436 341.774 574.436C339.913 574.436 338.427 575.097 337.319 576.42C336.21 577.742 335.655 579.532 335.655 581.791C335.655 584.049 336.21 585.839 337.319 587.162ZM358.345 573.917C358.386 572.107 359.042 570.611 360.314 569.431C361.585 568.251 363.182 567.661 365.105 567.661C366.977 567.661 368.548 568.236 369.82 569.385C371.102 570.535 371.742 571.954 371.742 573.643C371.742 574.812 371.412 575.952 370.751 577.061C370.1 578.159 368.864 579.66 367.043 581.562L360.161 588.84V588.901H372.566V590H358.422V589.084L366.249 580.784C367.938 579.003 369.072 577.635 369.652 576.679C370.242 575.713 370.537 574.716 370.537 573.688C370.537 572.295 370.013 571.125 368.965 570.179C367.918 569.223 366.621 568.745 365.074 568.745C363.508 568.745 362.201 569.233 361.153 570.209C360.105 571.186 359.561 572.422 359.52 573.917H358.345ZM375.771 573.917C375.811 572.107 376.468 570.611 377.739 569.431C379.011 568.251 380.608 567.661 382.53 567.661C384.402 567.661 385.974 568.236 387.245 569.385C388.527 570.535 389.168 571.954 389.168 573.643C389.168 574.812 388.837 575.952 388.176 577.061C387.525 578.159 386.289 579.66 384.468 581.562L377.587 588.84V588.901H389.992V590H375.847V589.084L383.675 580.784C385.363 579.003 386.498 577.635 387.078 576.679C387.668 575.713 387.963 574.716 387.963 573.688C387.963 572.295 387.439 571.125 386.391 570.179C385.343 569.223 384.046 568.745 382.5 568.745C380.933 568.745 379.626 569.233 378.578 570.209C377.531 571.186 376.986 572.422 376.946 573.917H375.771ZM411.263 588.962V574.604H402.931C402.687 578.561 402.479 581.404 402.306 583.134C402.174 584.537 401.985 585.722 401.741 586.689C401.497 587.645 401.136 588.388 400.658 588.917V588.962H411.263ZM398.995 594.349H397.865V588.962H399.162C400.231 588.26 400.907 586.292 401.192 583.057C401.487 579.772 401.711 576.608 401.863 573.566H412.438V588.962H415.154V594.349H414.025V590H398.995V594.349ZM423.958 574.421C422.249 574.421 420.85 575.021 419.762 576.221C418.673 577.422 418.083 579.003 417.992 580.967H429.787C429.777 579.024 429.232 577.447 428.154 576.237C427.086 575.026 425.687 574.421 423.958 574.421ZM429.589 585.407H430.794C430.519 586.821 429.777 587.976 428.566 588.871C427.366 589.766 425.876 590.214 424.095 590.214C421.847 590.214 420.062 589.471 418.74 587.986C417.427 586.49 416.771 584.431 416.771 581.806C416.771 579.263 417.427 577.218 418.74 575.672C420.062 574.126 421.807 573.353 423.973 573.353C426.089 573.353 427.788 574.08 429.07 575.535C430.351 576.979 430.992 578.897 430.992 581.287V581.974H417.977V582.035C417.977 584.253 418.531 585.992 419.64 587.253C420.749 588.515 422.239 589.146 424.111 589.146C425.575 589.146 426.791 588.8 427.757 588.108C428.734 587.416 429.344 586.516 429.589 585.407ZM436.547 581.44L446.205 590H444.542L435.341 581.837H435.28V590H434.105V573.566H435.28V581.119H435.341L444.191 573.566H445.778L436.547 581.44ZM453.301 589.161C454.938 589.161 456.332 588.652 457.482 587.635C458.631 586.607 459.206 585.366 459.206 583.912V581.455L453.728 581.867C452.151 581.979 450.951 582.35 450.127 582.981C449.303 583.612 448.891 584.476 448.891 585.575C448.891 586.623 449.303 587.482 450.127 588.154C450.961 588.825 452.019 589.161 453.301 589.161ZM453.148 590.214C451.541 590.214 450.229 589.786 449.211 588.932C448.204 588.067 447.701 586.948 447.701 585.575C447.701 584.171 448.194 583.073 449.181 582.279C450.178 581.486 451.643 581.018 453.575 580.875L459.206 580.463V578.998C459.206 577.564 458.789 576.445 457.955 575.641C457.131 574.838 455.981 574.436 454.506 574.436C453.112 574.436 451.973 574.777 451.088 575.458C450.203 576.14 449.664 577.101 449.471 578.342H448.326C448.469 576.827 449.104 575.616 450.234 574.711C451.363 573.805 452.792 573.353 454.521 573.353C456.322 573.353 457.746 573.851 458.794 574.848C459.852 575.845 460.381 577.203 460.381 578.922V590H459.236V586.46H459.206C458.799 587.579 458.036 588.484 456.917 589.176C455.798 589.868 454.542 590.214 453.148 590.214ZM470.787 590.305C468.437 590.305 466.627 589.491 465.355 587.864C464.094 586.236 463.463 583.912 463.463 580.891C463.463 578.866 463.555 577.122 463.738 575.657C463.931 574.182 464.226 572.905 464.623 571.827C465.019 570.748 465.548 569.884 466.21 569.233C466.881 568.582 467.68 568.104 468.605 567.798C469.531 567.483 470.63 567.315 471.901 567.295C472.796 567.295 473.61 567.259 474.343 567.188C475.512 567.086 476.413 566.898 477.043 566.624V567.661C476.514 567.956 475.645 568.155 474.434 568.256C473.661 568.348 472.822 568.394 471.916 568.394C470.645 568.404 469.577 568.577 468.712 568.912C467.858 569.238 467.14 569.782 466.561 570.545C465.981 571.308 465.533 572.269 465.218 573.429C464.913 574.589 464.684 576.059 464.531 577.839H464.592C465.101 576.506 465.904 575.474 467.003 574.741C468.102 573.999 469.399 573.627 470.894 573.627C473.091 573.627 474.846 574.38 476.158 575.886C477.471 577.381 478.127 579.375 478.127 581.867C478.127 584.431 477.46 586.48 476.128 588.016C474.795 589.542 473.015 590.305 470.787 590.305ZM470.787 589.222C472.659 589.222 474.149 588.561 475.258 587.238C476.367 585.906 476.921 584.115 476.921 581.867C476.921 579.68 476.367 577.94 475.258 576.649C474.159 575.357 472.669 574.711 470.787 574.711C468.905 574.711 467.41 575.357 466.301 576.649C465.203 577.94 464.653 579.68 464.653 581.867C464.653 584.115 465.203 585.906 466.301 587.238C467.41 588.561 468.905 589.222 470.787 589.222ZM488.564 573.353C490.629 573.353 492.302 574.136 493.584 575.703C494.876 577.259 495.522 579.288 495.522 581.791C495.522 584.293 494.881 586.323 493.599 587.879C492.317 589.435 490.644 590.214 488.579 590.214C487.094 590.214 485.797 589.786 484.688 588.932C483.589 588.077 482.857 586.989 482.491 585.667H482.445V595.264H481.255V573.566H482.369V577.961H482.414C482.791 576.628 483.538 575.53 484.657 574.665C485.787 573.79 487.089 573.353 488.564 573.353ZM488.426 589.146C490.176 589.146 491.595 588.469 492.684 587.116C493.772 585.753 494.316 583.978 494.316 581.791C494.316 579.604 493.772 577.834 492.684 576.481C491.595 575.118 490.176 574.436 488.426 574.436C486.667 574.436 485.227 575.118 484.108 576.481C482.999 577.844 482.445 579.614 482.445 581.791C482.445 583.958 482.999 585.728 484.108 587.101C485.227 588.464 486.667 589.146 488.426 589.146ZM503.685 582.34H508.095V574.604H503.685C502.322 574.604 501.234 574.96 500.42 575.672C499.606 576.374 499.199 577.32 499.199 578.51C499.199 579.66 499.606 580.585 500.42 581.287C501.244 581.989 502.332 582.34 503.685 582.34ZM508.095 590V583.378H503.914L498.955 590H497.551L502.632 583.225C501.208 583.062 500.084 582.564 499.26 581.73C498.436 580.896 498.024 579.827 498.024 578.525C498.024 577 498.533 575.794 499.55 574.909C500.577 574.014 501.956 573.566 503.685 573.566H509.27V590H508.095ZM515.77 589.847C515.567 590.051 515.317 590.153 515.022 590.153C514.727 590.153 514.473 590.051 514.26 589.847C514.056 589.634 513.954 589.379 513.954 589.084C513.954 588.789 514.056 588.54 514.26 588.337C514.473 588.123 514.727 588.016 515.022 588.016C515.317 588.016 515.567 588.123 515.77 588.337C515.984 588.54 516.091 588.789 516.091 589.084C516.091 589.379 515.984 589.634 515.77 589.847Z" fill="#820201"/>
<path d="M369.393 695.034C367.178 700.573 361.112 705.584 355.573 705.584V702.419C359.898 702.472 365.49 702.261 368.813 694.981C364.066 694.717 355.573 692.291 355.573 681.846C355.573 670.61 365.437 668.658 369.815 668.658H372.981V705.584H369.815V695.034C369.657 695.034 369.552 695.034 369.393 695.034ZM369.815 694.506V669.186C366.228 669.186 359.265 670.927 359.265 681.846C359.265 692.766 366.228 694.506 369.815 694.506ZM405.152 669.186V679.209C409.531 679.209 419.395 681.16 419.395 692.396C419.395 703.632 409.531 705.584 405.152 705.584H401.987V668.658H414.12V669.186H405.152ZM405.152 679.736V705.056C408.739 705.056 415.703 703.316 415.703 692.396C415.703 681.477 408.739 679.736 405.152 679.736ZM429.424 700.203C428.949 704.634 428.211 709.066 423.832 709.066V705.9C427.894 705.9 428.211 703.579 428.738 700.098L432.378 668.658H433.117L429.424 700.203ZM424.94 697.408L421.511 668.658H424.729L428.211 697.408H424.94ZM450.036 705.584H434.106L436.216 712.442H433.051V705.056H434C440.858 705.056 440.858 694.717 440.858 669.186H438.959V668.658H448.454V705.056H451.091V712.442H447.926L450.036 705.584ZM445.289 669.186H441.385C441.385 692.132 441.174 702.472 436.585 704.951V705.056H445.289V669.186ZM462.702 700.203C462.228 704.634 461.489 709.066 457.111 709.066V705.9C461.173 705.9 461.489 703.579 462.017 700.098L465.656 668.658H466.395L462.702 700.203ZM458.219 697.408L454.79 668.658H458.008L461.489 697.408H458.219ZM475.717 700.309H475.19L473.344 668.658H477.564L475.717 700.309ZM473.396 704.107C473.396 702.894 474.24 702.05 475.454 702.05C476.72 702.05 477.511 702.894 477.511 704.107C477.511 705.373 476.72 706.164 475.454 706.164C474.24 706.164 473.396 705.373 473.396 704.107Z" fill="#820201"/>
<rect x="283.6" y="647.6" width="267.799" height="78.3271" rx="39.1636" stroke="#820201" stroke-width="0.799257" stroke-dasharray="7.19 7.19"/>
<path d="M416.875 845.148C417.311 843.539 417.705 841.972 418.17 840.425C419.564 835.828 421.803 832.463 425.028 830.771C430.098 828.096 434.689 832.63 435.351 840.572C436.252 851.564 434.28 861.783 431.492 871.646C427.971 884.06 424.028 896.222 420.254 908.489C419.592 910.621 418.959 912.794 418.17 914.842C417.128 917.538 416.199 917.58 415.227 914.758C413.776 910.579 412.396 906.295 411.199 901.948C407.749 889.389 404.088 876.913 401.159 864.081C399.694 857.561 399.314 850.394 399.018 843.476C398.849 839.401 399.863 835.201 402.412 832.63C406.045 828.973 410.692 830.394 413.495 836.204C414.804 838.9 415.706 842.014 416.875 845.127V845.148Z" fill="#820201"/>
<path d="M831.892 230.724C704.384 195.895 907.209 148.734 751.539 116.011C595.869 83.288 666.111 325.152 521.658 235.636C377.206 146.119 303.853 293.048 241.539 222.594C179.225 152.139 110.551 79.6682 32.7795 222.869C-29.4376 337.429 -122.577 122.537 -161.369 0.771372" stroke="#820201"/>
</svg>
